# xmcd
# Track frame offsets:
# 150
# 10084
# 22343
# 35212
# 47066
# 59419
# 71198
# 84511
# 97456
# 111163
# 125278
# 138376
# 147330
# 160461
# 170081
# 182258
# 195080
#
# Disc length: 2769 seconds
# Revision: 0
# Processed by: cddbd v1.5.2PL0 Copyright (c) Steve Scherf et al.
# Submitted via: VisiTrax 2.10.3.257 - For more info visit www.synapsa.com
#
DISCID=fa0acf11
DTITLE=Merle Haggard - Pride In What I Am
DYEAR=1969
DGENRE=Country
TTITLE0=Lookin' For My Mind
TTITLE1=You're Not Home Yet
TTITLE2=I Take A Lot Of Pride In What I Am
TTITLE3=Who'll Buy The Wine
TTITLE4=The Day The Rains Came
TTITLE5=I meant Goodbye To Me When You Said Hello To HIm
TTITLE6=I Can't Hold Myself In Line
TTITLE7=I'm Bringin' HOme Good News
TTITLE8=Keep Me From Cryin' Today
TTITLE9=I Just Want To Look At You One More Time
TTITLE10=Somewhere ON Skid Row
TTITLE11=I'm Free
TTITLE12=California Blues
TTITLE13=I Think We're Livin' In The Good Old Days
TTITLE14=California On My Mind
TTITLE15=White Line Fever
TTITLE16=Streets Of Berlin
EXTD=
EXTT0=
EXTT1=
EXTT2=
EXTT3=
EXTT4=
EXTT5=
EXTT6=
EXTT7=
EXTT8=
EXTT9=
EXTT10=
EXTT11=
EXTT12=
EXTT13=
EXTT14=
EXTT15=
EXTT16=
PLAYORDER=
